<svg width="400" height="400" viewBox="0 0 400 400" fill="none" xmlns="http://www.w3.org/2000/svg">
<circle cx="261.5" cy="200.556" r="16.5" fill="#FFCC4A"/>
<path d="M78.8153 210.208C78.8153 208.775 78.1039 207.653 76.6809 206.842C75.2847 206.003 73.0294 205.26 69.9149 204.611C59.5512 202.421 54.3693 197.987 54.3693 191.309C54.3693 187.416 55.9668 184.172 59.1619 181.576C62.3837 178.954 66.5856 177.642 71.7675 177.642C77.2984 177.642 81.715 178.954 85.0175 181.576C88.3468 184.199 90.0114 187.605 90.0114 191.796H78.3723C78.3723 190.12 77.8354 188.741 76.7614 187.659C75.6874 186.551 74.0094 185.997 71.7272 185.997C69.7672 185.997 68.2503 186.443 67.1763 187.335C66.1023 188.227 65.5653 189.363 65.5653 190.741C65.5653 192.039 66.1695 193.094 67.3777 193.905C68.6127 194.689 70.6801 195.378 73.5798 195.973C76.4795 196.541 78.9227 197.19 80.9096 197.92C87.058 200.191 90.1322 204.124 90.1322 209.721C90.1322 213.722 88.4273 216.967 85.0175 219.454C81.6077 221.914 77.2044 223.144 71.8078 223.144C68.1563 223.144 64.9075 222.496 62.0616 221.198C59.2424 219.873 57.0274 218.075 55.4164 215.804C53.8055 213.506 53 211.032 53 208.383H64.035C64.1424 210.464 64.9075 212.06 66.3305 213.168C67.7535 214.276 69.6598 214.831 72.0494 214.831C74.2779 214.831 75.9559 214.412 77.0836 213.574C78.2381 212.708 78.8153 211.586 78.8153 210.208Z" fill="white"/>
<path d="M111.598 167.666V178.453H119.049V187.051H111.598V208.95C111.598 210.573 111.907 211.735 112.524 212.438C113.142 213.141 114.323 213.492 116.068 213.492C117.357 213.492 118.498 213.398 119.492 213.209V222.09C117.209 222.793 114.86 223.144 112.444 223.144C104.282 223.144 100.12 218.994 99.959 210.694V187.051H93.5957V178.453H99.959V167.666H111.598Z" fill="white"/>
<path d="M150.019 189.444C148.435 189.227 147.039 189.119 145.831 189.119C141.427 189.119 138.541 190.62 137.172 193.621V222.333H125.533V178.453H136.527L136.85 183.685C139.185 179.657 142.421 177.642 146.555 177.642C147.844 177.642 149.052 177.818 150.18 178.17L150.019 189.444Z" fill="white"/>
<path d="M179.701 222.333C179.164 221.279 178.774 219.968 178.533 218.4C175.714 221.563 172.049 223.144 167.538 223.144C163.269 223.144 159.725 221.901 156.906 219.413C154.113 216.926 152.717 213.79 152.717 210.005C152.717 205.355 154.422 201.786 157.832 199.298C161.269 196.811 166.222 195.554 172.693 195.527H178.049V193.012C178.049 190.985 177.526 189.363 176.479 188.146C175.458 186.929 173.834 186.321 171.606 186.321C169.646 186.321 168.102 186.794 166.974 187.74C165.873 188.687 165.323 189.984 165.323 191.634H153.684C153.684 189.092 154.463 186.74 156.02 184.577C157.577 182.414 159.779 180.724 162.625 179.508C165.471 178.264 168.666 177.642 172.21 177.642C177.58 177.642 181.835 179.008 184.976 181.738C188.145 184.442 189.729 188.254 189.729 193.175V212.195C189.756 216.358 190.333 219.508 191.46 221.644V222.333H179.701ZM170.075 214.182C171.794 214.182 173.378 213.803 174.828 213.046C176.277 212.262 177.351 211.221 178.049 209.924V202.381H173.7C167.874 202.381 164.773 204.408 164.397 208.464L164.356 209.153C164.356 210.613 164.867 211.816 165.887 212.762C166.907 213.709 168.303 214.182 170.075 214.182Z" fill="white"/>
<path d="M222.27 210.208C222.27 208.775 221.558 207.653 220.135 206.842C218.739 206.003 216.484 205.26 213.369 204.611C203.006 202.421 197.824 197.987 197.824 191.309C197.824 187.416 199.421 184.172 202.616 181.576C205.838 178.954 210.04 177.642 215.222 177.642C220.753 177.642 225.169 178.954 228.472 181.576C231.801 184.199 233.466 187.605 233.466 191.796H221.827C221.827 190.12 221.29 188.741 220.216 187.659C219.142 186.551 217.464 185.997 215.182 185.997C213.222 185.997 211.705 186.443 210.631 187.335C209.557 188.227 209.02 189.363 209.02 190.741C209.02 192.039 209.624 193.094 210.832 193.905C212.067 194.689 214.134 195.378 217.034 195.973C219.934 196.541 222.377 197.19 224.364 197.92C230.512 200.191 233.587 204.124 233.587 209.721C233.587 213.722 231.882 216.967 228.472 219.454C225.062 221.914 220.659 223.144 215.262 223.144C211.611 223.144 208.362 222.496 205.516 221.198C202.697 219.873 200.482 218.075 198.871 215.804C197.26 213.506 196.454 211.032 196.454 208.383H207.489C207.597 210.464 208.362 212.06 209.785 213.168C211.208 214.276 213.114 214.831 215.504 214.831C217.732 214.831 219.41 214.412 220.538 213.574C221.693 212.708 222.27 211.586 222.27 210.208Z" fill="white"/>
<path d="M303.044 178.398V224.67C303.044 229.51 301.769 233.268 299.218 235.945C296.667 238.648 292.989 240 288.183 240C286.169 240 284.25 239.77 282.424 239.311V230.024C283.82 230.267 285.042 230.389 286.089 230.389C289.606 230.389 291.365 228.51 291.365 224.752V178.398H303.044ZM290.438 167.043C290.438 165.285 291.016 163.839 292.17 162.703C293.352 161.568 294.949 161 296.963 161C298.976 161 300.561 161.568 301.715 162.703C302.896 163.839 303.487 165.285 303.487 167.043C303.487 168.827 302.883 170.287 301.675 171.422C300.493 172.558 298.923 173.126 296.963 173.126C295.003 173.126 293.419 172.558 292.21 171.422C291.029 170.287 290.438 168.827 290.438 167.043Z" fill="white"/>
<path d="M335.746 210.152C335.746 208.719 335.035 207.597 333.612 206.786C332.216 205.948 329.96 205.204 326.846 204.555C316.482 202.366 311.3 197.932 311.3 191.254C311.3 187.36 312.898 184.116 316.093 181.521C319.315 178.898 323.516 177.587 328.698 177.587C334.229 177.587 338.646 178.898 341.948 181.521C345.278 184.143 346.942 187.55 346.942 191.74H335.303C335.303 190.064 334.766 188.685 333.692 187.604C332.618 186.495 330.94 185.941 328.658 185.941C326.698 185.941 325.181 186.387 324.107 187.279C323.033 188.171 322.496 189.307 322.496 190.686C322.496 191.984 323.1 193.038 324.309 193.849C325.544 194.633 327.611 195.323 330.511 195.917C333.41 196.485 335.854 197.134 337.84 197.864C343.989 200.135 347.063 204.069 347.063 209.665C347.063 213.667 345.358 216.911 341.948 219.398C338.538 221.859 334.135 223.089 328.739 223.089C325.087 223.089 321.838 222.44 318.992 221.142C316.173 219.817 313.958 218.02 312.347 215.748C310.736 213.45 309.931 210.977 309.931 208.327H320.966C321.073 210.409 321.838 212.004 323.261 213.112C324.684 214.221 326.591 214.775 328.98 214.775C331.209 214.775 332.887 214.356 334.014 213.518C335.169 212.653 335.746 211.531 335.746 210.152Z" fill="white"/>
</svg>
